<svg width="20" height="20" viewBox="0 0 20 20" fill="none" xmlns="http://www.w3.org/2000/svg">
<g id="Category">
<path id="Stroke 1 (Stroke)" fill-rule="evenodd" clip-rule="evenodd" d="M15.3267 1.75C13.7126 1.75 12.4038 3.05917 12.4038 4.6738C12.4038 6.28843 13.7126 7.5976 15.3267 7.5976C16.9411 7.5976 18.2505 6.28819 18.2505 4.6738C18.2505 3.05941 16.9411 1.75 15.3267 1.75ZM10.9038 4.6738C10.9038 2.23123 12.8837 0.25 15.3267 0.25C17.7695 0.25 19.7505 2.23099 19.7505 4.6738C19.7505 7.11661 17.7695 9.0976 15.3267 9.0976C12.8837 9.0976 10.9038 7.11637 10.9038 4.6738Z" fill="#F5F6FF"/>
<path id="Stroke 3 (Stroke)" fill-rule="evenodd" clip-rule="evenodd" d="M4.6729 1.75C3.05953 1.75 1.75 3.05929 1.75 4.6738C1.75 6.28831 3.05953 7.5976 4.6729 7.5976C6.28807 7.5976 7.5967 6.28831 7.5967 4.6738C7.5967 3.05929 6.28807 1.75 4.6729 1.75ZM0.25 4.6738C0.25 2.23111 2.23087 0.25 4.6729 0.25C7.11673 0.25 9.0967 2.23111 9.0967 4.6738C9.0967 7.11649 7.11673 9.0976 4.6729 9.0976C2.23087 9.0976 0.25 7.11649 0.25 4.6738Z" fill="white"/>
<path id="Stroke 5 (Stroke)" fill-rule="evenodd" clip-rule="evenodd" d="M15.3267 12.3379C13.7126 12.3379 12.4038 13.6471 12.4038 15.2617C12.4038 16.8761 13.7123 18.1846 15.3267 18.1846C16.9413 18.1846 18.2505 16.8758 18.2505 15.2617C18.2505 13.6473 16.9411 12.3379 15.3267 12.3379ZM10.9038 15.2617C10.9038 12.8191 12.8837 10.8379 15.3267 10.8379C17.7695 10.8379 19.7505 12.8189 19.7505 15.2617C19.7505 17.7047 17.7693 19.6846 15.3267 19.6846C12.8839 19.6846 10.9038 17.7045 10.9038 15.2617Z" fill="white"/>
<path id="Stroke 7 (Stroke)" fill-rule="evenodd" clip-rule="evenodd" d="M4.6729 12.3379C3.05953 12.3379 1.75 13.6472 1.75 15.2617C1.75 16.876 3.05929 18.1846 4.6729 18.1846C6.28831 18.1846 7.5967 16.876 7.5967 15.2617C7.5967 13.6472 6.28807 12.3379 4.6729 12.3379ZM0.25 15.2617C0.25 12.819 2.23087 10.8379 4.6729 10.8379C7.11673 10.8379 9.0967 12.819 9.0967 15.2617C9.0967 17.7046 7.11649 19.6846 4.6729 19.6846C2.23111 19.6846 0.25 17.7046 0.25 15.2617Z" fill="white"/>
</g>
</svg>
