<svg width="5" height="5" viewBox="0 0 5 5" fill="none" xmlns="http://www.w3.org/2000/svg">
<g id="Document">
<path id="Stroke 1 (Stroke)" fill-rule="evenodd" clip-rule="evenodd" d="M1.78076 3.20923C1.78076 3.12654 1.84779 3.05951 1.93048 3.05951H3.37181C3.4545 3.05951 3.52153 3.12654 3.52153 3.20923C3.52153 3.29192 3.4545 3.35895 3.37181 3.35895H1.93048C1.84779 3.35895 1.78076 3.29192 1.78076 3.20923Z" fill="white"/>
<path id="Stroke 2 (Stroke)" fill-rule="evenodd" clip-rule="evenodd" d="M1.78076 2.45868C1.78076 2.37599 1.84779 2.30896 1.93048 2.30896H3.37181C3.4545 2.30896 3.52153 2.37599 3.52153 2.45868C3.52153 2.54137 3.4545 2.6084 3.37181 2.6084H1.93048C1.84779 2.6084 1.78076 2.54137 1.78076 2.45868Z" fill="white"/>
<path id="Stroke 3 (Stroke)" fill-rule="evenodd" clip-rule="evenodd" d="M1.78101 1.70822C1.78101 1.62554 1.84804 1.5585 1.93073 1.5585H2.48071C2.5634 1.5585 2.63043 1.62554 2.63043 1.70822C2.63043 1.79091 2.5634 1.85795 2.48071 1.85795H1.93073C1.84804 1.85795 1.78101 1.79091 1.78101 1.70822Z" fill="white"/>
<path id="Stroke 4 (Stroke)" fill-rule="evenodd" clip-rule="evenodd" d="M1.23462 0.928171C1.54044 0.591037 2.01484 0.475067 2.65416 0.475067C3.29357 0.475067 3.76798 0.591034 4.07378 0.928176C4.37558 1.26091 4.47897 1.773 4.47897 2.47136C4.47897 3.16972 4.37558 3.68182 4.07378 4.01455C3.76798 4.35169 3.29357 4.46766 2.65416 4.46766C2.01484 4.46766 1.54044 4.35169 1.23462 4.01456C0.932796 3.68183 0.829346 3.16973 0.829346 2.47136C0.829346 1.77299 0.932796 1.2609 1.23462 0.928171ZM1.45641 1.12936C1.23475 1.37371 1.12879 1.7849 1.12879 2.47136C1.12879 3.15782 1.23475 3.56902 1.45641 3.81337C1.67407 4.05331 2.03721 4.16821 2.65416 4.16821C3.27121 4.16821 3.63435 4.05331 3.85198 3.81337C4.07361 3.56902 4.17953 3.15784 4.17953 2.47136C4.17953 1.78489 4.07361 1.3737 3.85198 1.12935C3.63435 0.889416 3.27121 0.774512 2.65416 0.774512C2.03721 0.774512 1.67407 0.889413 1.45641 1.12936Z" fill="white"/>
</g>
</svg>
