<svg width="22" height="23" viewBox="0 0 22 23" fill="none" xmlns="http://www.w3.org/2000/svg">
<g id="google_ic">
<g id="Group 123">
<path id="Vector" d="M5.6255 13.6063L4.953 16.1169L2.495 16.1689C1.76042 14.8064 1.34375 13.2476 1.34375 11.591C1.34375 9.98914 1.73332 8.47855 2.42387 7.14844H2.4244L4.61271 7.54963L5.57132 9.72481C5.37068 10.3097 5.26133 10.9376 5.26133 11.591C5.2614 12.3001 5.38985 12.9795 5.6255 13.6063Z" fill="#FBBB00"/>
<path id="Vector_2" d="M20.4899 9.78906C20.6008 10.3734 20.6586 10.9769 20.6586 11.5937C20.6586 12.2853 20.5859 12.9599 20.4474 13.6106C19.9772 15.825 18.7484 17.7586 17.0462 19.127L17.0457 19.1264L14.2894 18.9858L13.8993 16.5506C15.0288 15.8882 15.9115 14.8516 16.3764 13.6106H11.2109V9.78906H16.4518H20.4899Z" fill="#518EF8"/>
<path id="Vector_3" d="M17.0559 19.1268L17.0565 19.1273C15.401 20.4579 13.298 21.2541 11.0088 21.2541C7.33004 21.2541 4.13161 19.1979 2.5 16.1719L5.63051 13.6094C6.44629 15.7866 8.54657 17.3365 11.0088 17.3365C12.0672 17.3365 13.0587 17.0504 13.9095 16.5509L17.0559 19.1268Z" fill="#28B446"/>
<path id="Vector_4" d="M17.1678 4.16143L14.0384 6.72346C13.1578 6.17307 12.117 5.85511 11.0018 5.85511C8.48384 5.85511 6.34428 7.47608 5.56936 9.73137L2.4224 7.155H2.42188C4.0296 4.05528 7.26837 1.9375 11.0018 1.9375C13.3457 1.9375 15.4948 2.77242 17.1678 4.16143Z" fill="#F14336"/>
</g>
</g>
</svg>
