<svg width="22" height="22" viewBox="0 0 22 22" fill="none" xmlns="http://www.w3.org/2000/svg">
<g id="Home">
<path id="Stroke 1 (Stroke)" fill-rule="evenodd" clip-rule="evenodd" d="M7.32861 15.1348C7.32861 14.7206 7.6644 14.3848 8.07861 14.3848H13.8936C14.3078 14.3848 14.6436 14.7206 14.6436 15.1348C14.6436 15.549 14.3078 15.8848 13.8936 15.8848H8.07861C7.6644 15.8848 7.32861 15.549 7.32861 15.1348Z" fill="#777777"/>
<path id="Stroke 2 (Stroke)" fill-rule="evenodd" clip-rule="evenodd" d="M5.80976 4.97765C5.39721 5.35978 5.0268 5.68822 4.69752 5.97845C4.65105 6.01941 4.60554 6.05949 4.56095 6.09875C4.28204 6.34435 4.03915 6.55824 3.82098 6.75963C3.31567 7.22608 2.99647 7.57827 2.77075 7.97216C2.31825 8.76176 2.1499 9.86897 2.1499 12.713C2.1499 14.7691 2.27297 16.2451 2.55106 17.3153C2.82406 18.3658 3.23102 18.9679 3.77012 19.3548C4.33316 19.759 5.13694 19.9997 6.34735 20.1245C7.55656 20.2491 9.06492 20.25 10.9859 20.25C12.9069 20.25 14.4152 20.2491 15.6245 20.1245C16.8349 19.9997 17.6386 19.759 18.2017 19.3548C18.7408 18.9679 19.1478 18.3658 19.4207 17.3153C19.6988 16.2451 19.8219 14.7691 19.8219 12.713C19.8219 9.86889 19.6538 8.76166 19.2015 7.97204C18.9759 7.57818 18.6568 7.22601 18.1516 6.75958C17.9333 6.55801 17.6902 6.34391 17.411 6.09801C17.3666 6.05898 17.3214 6.01914 17.2752 5.97843C16.946 5.6882 16.5756 5.35976 16.163 4.97762C15.9188 4.78041 15.6658 4.56703 15.4036 4.34588C14.8325 3.86414 14.2176 3.34554 13.5543 2.87695C12.5694 2.18118 11.6774 1.75 10.9579 1.75C10.2408 1.75 9.36095 2.18121 8.38903 2.87803C7.75474 3.33278 7.17452 3.827 6.62932 4.29137C6.34766 4.53128 6.07534 4.76323 5.80976 4.97765ZM7.51502 1.65897C8.51535 0.941785 9.73203 0.25 10.9579 0.25C12.1804 0.25 13.4069 0.936325 14.4198 1.6518C15.1357 2.15759 15.844 2.75449 16.4369 3.25416C16.6898 3.46729 16.9218 3.66274 17.1243 3.82587C17.1379 3.83681 17.1511 3.84822 17.1639 3.86008C17.5699 4.23662 17.9353 4.5607 18.2671 4.85318C18.3121 4.89284 18.3566 4.93205 18.4007 4.97083C18.6785 5.21553 18.9367 5.4429 19.1691 5.65748C19.7084 6.15537 20.1623 6.63157 20.5031 7.22646C21.1835 8.41434 21.3219 9.92611 21.3219 12.713C21.3219 14.8004 21.2001 16.432 20.8725 17.6926C20.5399 18.9727 19.9804 19.9245 19.0764 20.5734C18.1963 21.2051 17.0803 21.4824 15.7783 21.6166C14.4836 21.75 12.8993 21.75 11.0231 21.75H10.9487C9.07248 21.75 7.48821 21.75 6.19355 21.6166C4.89155 21.4824 3.77552 21.2051 2.89543 20.5734C1.99141 19.9245 1.43194 18.9727 1.09928 17.6926C0.771714 16.432 0.649902 14.8004 0.649902 12.713C0.649902 9.92603 0.788555 8.41424 1.46931 7.22634C1.8102 6.63148 2.2642 6.1553 2.80355 5.65743C3.03573 5.4431 3.29366 5.216 3.57121 4.97161C3.61555 4.93257 3.66038 4.89309 3.7057 4.85316C4.03752 4.56069 4.4029 4.23661 4.80892 3.86008C4.82174 3.84818 4.83498 3.83674 4.84861 3.82577C5.06073 3.65502 5.30829 3.44454 5.57983 3.21367C6.15381 2.72566 6.83495 2.14655 7.51502 1.65897Z" fill="#777777"/>
</g>
</svg>
