<svg width="15" height="15" viewBox="0 0 15 15" fill="none" xmlns="http://www.w3.org/2000/svg">
<path d="M2.68588 7.46597C2.68588 7.81661 2.97545 8.10254 3.32246 8.10254H6.82831V11.6084C6.82831 11.9544 7.1132 12.244 7.46386 12.244C7.8145 12.244 8.10511 11.9544 8.10511 11.6084V8.10254H11.6063C11.9523 8.10254 12.2419 7.81661 12.2419 7.46597C12.2419 7.1153 11.9523 6.8247 11.6063 6.8247H8.10511V3.32457C8.10511 2.97756 7.8145 2.68799 7.46386 2.68799C7.1132 2.68799 6.82831 2.97756 6.82831 3.32457V6.8247H3.32246C2.97545 6.8247 2.68588 7.1153 2.68588 7.46597Z" fill="white"/>
</svg>
