<svg width="30" height="31" viewBox="0 0 30 31" fill="none" xmlns="http://www.w3.org/2000/svg">
<g id="Icon/setting-2" filter="url(#filter0_d_297_2359)">
<path id="Vector" d="M15 15.75C12.93 15.75 11.25 14.07 11.25 12C11.25 9.93 12.93 8.25 15 8.25C17.07 8.25 18.75 9.93 18.75 12C18.75 14.07 17.07 15.75 15 15.75ZM15 9.75C13.76 9.75 12.75 10.76 12.75 12C12.75 13.24 13.76 14.25 15 14.25C16.24 14.25 17.25 13.24 17.25 12C17.25 10.76 16.24 9.75 15 9.75Z" fill="#777777"/>
<path id="Vector_2" d="M18.21 22.1903C18 22.1903 17.79 22.1603 17.58 22.1103C16.96 21.9403 16.44 21.5503 16.11 21.0003L15.99 20.8003C15.4 19.7803 14.59 19.7803 14 20.8003L13.89 20.9903C13.56 21.5503 13.04 21.9503 12.42 22.1103C11.79 22.2803 11.14 22.1903 10.59 21.8603L8.87 20.8703C8.26 20.5203 7.82 19.9503 7.63 19.2603C7.45 18.5703 7.54 17.8603 7.89 17.2503C8.18 16.7403 8.26 16.2803 8.09 15.9903C7.92 15.7003 7.49 15.5303 6.9 15.5303C5.44 15.5303 4.25 14.3403 4.25 12.8803V11.1203C4.25 9.66029 5.44 8.47029 6.9 8.47029C7.49 8.47029 7.92 8.30029 8.09 8.01029C8.26 7.72029 8.19 7.26029 7.89 6.75029C7.54 6.14029 7.45 5.42029 7.63 4.74029C7.81 4.05029 8.25 3.48029 8.87 3.13029L10.6 2.14029C11.73 1.47029 13.22 1.86029 13.9 3.01029L14.02 3.21029C14.61 4.23029 15.42 4.23029 16.01 3.21029L16.12 3.02029C16.8 1.86029 18.29 1.47029 19.43 2.15029L21.15 3.14029C21.76 3.49029 22.2 4.06029 22.39 4.75029C22.57 5.44029 22.48 6.15029 22.13 6.76029C21.84 7.27029 21.76 7.73029 21.93 8.02029C22.1 8.31029 22.53 8.48029 23.12 8.48029C24.58 8.48029 25.77 9.67029 25.77 11.1303V12.8903C25.77 14.3503 24.58 15.5403 23.12 15.5403C22.53 15.5403 22.1 15.7103 21.93 16.0003C21.76 16.2903 21.83 16.7503 22.13 17.2603C22.48 17.8703 22.58 18.5903 22.39 19.2703C22.21 19.9603 21.77 20.5303 21.15 20.8803L19.42 21.8703C19.04 22.0803 18.63 22.1903 18.21 22.1903ZM15 18.4903C15.89 18.4903 16.72 19.0503 17.29 20.0403L17.4 20.2303C17.52 20.4403 17.72 20.5903 17.96 20.6503C18.2 20.7103 18.44 20.6803 18.64 20.5603L20.37 19.5603C20.63 19.4103 20.83 19.1603 20.91 18.8603C20.99 18.5603 20.95 18.2503 20.8 17.9903C20.23 17.0103 20.16 16.0003 20.6 15.2303C21.04 14.4603 21.95 14.0203 23.09 14.0203C23.73 14.0203 24.24 13.5103 24.24 12.8703V11.1103C24.24 10.4803 23.73 9.96029 23.09 9.96029C21.95 9.96029 21.04 9.52029 20.6 8.75029C20.16 7.98029 20.23 6.97029 20.8 5.99029C20.95 5.73029 20.99 5.42029 20.91 5.12029C20.83 4.82029 20.64 4.58029 20.38 4.42029L18.65 3.43029C18.22 3.17029 17.65 3.32029 17.39 3.76029L17.28 3.95029C16.71 4.94029 15.88 5.50029 14.99 5.50029C14.1 5.50029 13.27 4.94029 12.7 3.95029L12.59 3.75029C12.34 3.33029 11.78 3.18029 11.35 3.43029L9.62 4.43029C9.36 4.58029 9.16 4.83029 9.08 5.13029C9 5.43029 9.04 5.74029 9.19 6.00029C9.76 6.98029 9.83 7.99029 9.39 8.76029C8.95 9.53029 8.04 9.97029 6.9 9.97029C6.26 9.97029 5.75 10.4803 5.75 11.1203V12.8803C5.75 13.5103 6.26 14.0303 6.9 14.0303C8.04 14.0303 8.95 14.4703 9.39 15.2403C9.83 16.0103 9.76 17.0203 9.19 18.0003C9.04 18.2603 9 18.5703 9.08 18.8703C9.16 19.1703 9.35 19.4103 9.61 19.5703L11.34 20.5603C11.55 20.6903 11.8 20.7203 12.03 20.6603C12.27 20.6003 12.47 20.4403 12.6 20.2303L12.71 20.0403C13.28 19.0603 14.11 18.4903 15 18.4903Z" fill="#777777"/>
</g>
<defs>
<filter id="filter0_d_297_2359" x="0.25" y="1.8125" width="29.52" height="28.3828" filterUnits="userSpaceOnUse" color-interpolation-filters="sRGB">
<feFlood flood-opacity="0" result="BackgroundImageFix"/>
<feColorMatrix in="SourceAlpha" type="matrix" values="0 0 0 0 0 0 0 0 0 0 0 0 0 0 0 0 0 0 127 0" result="hardAlpha"/>
<feOffset dy="4"/>
<feGaussianBlur stdDeviation="2"/>
<feComposite in2="hardAlpha" operator="out"/>
<feColorMatrix type="matrix" values="0 0 0 0 0 0 0 0 0 0 0 0 0 0 0 0 0 0 0.25 0"/>
<feBlend mode="normal" in2="BackgroundImageFix" result="effect1_dropShadow_297_2359"/>
<feBlend mode="normal" in="SourceGraphic" in2="effect1_dropShadow_297_2359" result="shape"/>
</filter>
</defs>
</svg>
