<svg width="20" height="22" viewBox="0 0 20 22" fill="none" xmlns="http://www.w3.org/2000/svg">
<g id="Work">
<path id="Stroke 1 (Stroke)" fill-rule="evenodd" clip-rule="evenodd" d="M9.96094 12.1406C10.3752 12.1406 10.7109 12.4764 10.7109 12.8906V15.5186C10.7109 15.9328 10.3752 16.2686 9.96094 16.2686C9.54672 16.2686 9.21094 15.9328 9.21094 15.5186V12.8906C9.21094 12.4764 9.54672 12.1406 9.96094 12.1406Z" fill="#777777"/>
<path id="Stroke 2 (Stroke)" fill-rule="evenodd" clip-rule="evenodd" d="M0.217672 10.0485C0.455208 9.70915 0.922855 9.62662 1.26219 9.86416L1.27398 9.87241C3.5624 11.2773 6.60498 12.1426 9.9561 12.1426C13.3051 12.1426 16.3545 11.2784 18.6432 9.87547L18.6492 9.87113C18.9847 9.62818 19.4536 9.7032 19.6965 10.0387C19.9395 10.3742 19.8645 10.8431 19.529 11.086L19.5 11.107C19.4849 11.118 19.4694 11.1284 19.4535 11.1381C16.9007 12.7107 13.5636 13.6426 9.9561 13.6426C6.3482 13.6426 3.02011 12.7105 0.468611 11.1381C0.456175 11.1304 0.443966 11.1224 0.431999 11.114L0.401999 11.093C0.0626619 10.8555 -0.0198642 10.3878 0.217672 10.0485Z" fill="#777777"/>
<path id="Stroke 4 (Stroke)" fill-rule="evenodd" clip-rule="evenodd" d="M3.2638 6.50303C2.07181 7.56457 1.5 9.33453 1.5 12.3514C1.5 15.3683 2.07181 17.1383 3.2638 18.1998C4.48218 19.2849 6.53488 19.8044 9.961 19.8044C13.3877 19.8044 15.4403 19.2849 16.6586 18.1999C17.8504 17.1383 18.422 15.3684 18.422 12.3514C18.422 9.33445 17.8504 7.56453 16.6586 6.50301C15.4403 5.41799 13.3877 4.89844 9.961 4.89844C6.53488 4.89844 4.48218 5.41798 3.2638 6.50303ZM2.2662 5.38285C3.92632 3.9044 6.47912 3.39844 9.961 3.39844C13.4434 3.39844 15.9962 3.90438 17.6562 5.38287C19.3426 6.88485 19.922 9.21642 19.922 12.3514C19.922 15.4865 19.3426 17.818 17.6562 19.32C15.9962 20.7985 13.4434 21.3044 9.961 21.3044C6.47912 21.3044 3.92632 20.7985 2.2662 19.32C0.579691 17.8181 0 15.4865 0 12.3514C0 9.21635 0.579691 6.8848 2.2662 5.38285Z" fill="#777777"/>
<path id="Stroke 6 (Stroke)" fill-rule="evenodd" clip-rule="evenodd" d="M5.94873 3.74017C5.94873 2.13814 7.13523 0.701172 8.75873 0.701172H11.1637C12.7872 0.701172 13.9737 2.13814 13.9737 3.74017V4.37017C13.9737 4.78439 13.6379 5.12017 13.2237 5.12017C12.8095 5.12017 12.4737 4.78439 12.4737 4.37017V3.74017C12.4737 2.8142 11.8142 2.20117 11.1637 2.20117H8.75873C8.10823 2.20117 7.44873 2.8142 7.44873 3.74017V4.37017C7.44873 4.78439 7.11294 5.12017 6.69873 5.12017C6.28452 5.12017 5.94873 4.78439 5.94873 4.37017V3.74017Z" fill="#777777"/>
</g>
</svg>
